#!OML:ASF E:/inclinewalkrobotboard/Project1/Captureday1/Session1/subject1.ASF
:FULLY-SPECIFIED
:DEGREES
143
root 0 0 0 -2.1099784298936495 -3.738728324541949 0.5028175239289845
lowerback 7.601941846179705 1.602905310213433 -2.5350314126158304
upperback 1.902260680865294 1.987263429831374 -0.06719353381370441
thorax -2.3240958193718426 1.045140677159014 1.235909713568768
lowerneck -9.256760001795596 -5.539821156997905 -6.453701503822205
upperneck 30.93484348344397 -8.65983421062007 6.149935957723376
head 11.579788183539447 -3.951100701654263 2.051609097443392
rclavicle -1.5983124479552663E-15 1.5962217234807839E-15
rhumerus -9.063661741609533 2.7404835545150394 -79.80136365402913
rradius 49.82827640160304
rwrist -20.880887853000736
rhand -42.03939686654466 15.975475942243648
rfingers 7.125019999999947
rthumb -14.883192364773274 -13.439625553400154
lclavicle -5.8886600948597E-15 1.3553848383668675E-15
lhumerus -31.21131624976434 12.215879600802253 76.63526187078487
lradius 24.720539651850494
lwrist -4.91304797269717
lhand -24.699874265250937 21.728218287755702
lfingers 7.1250199999999575
lthumb 1.8058658872415265 51.67265331590795
rfemur -0.023470888794022482 8.236524607797158 34.392132208947494
rtibia 29.676969909771927
rfoot -19.016238561985247 -9.065499230595062
rtoes 3.610732134072519
lfemur -31.071603019597156 0.9308222897719407 -14.046144624801183
ltibia 39.14438861877538
lfoot -3.812294376246422 -5.125222008530942
ltoes -3.9078915005458463
144
root 0 0 0 -2.1181509651548334 -3.7539960331149937 0.4986533576300152
lowerback 7.61230167068393 1.5944556683675244 -2.5343037620414677
upperback 1.8843719347440806 1.9763801092161375 -0.060863597066606934
thorax -2.349966884844316 1.0390866244989518 1.2436942616960023
lowerneck -9.3042697997864 -5.533616031115911 -6.4323368637884935
upperneck 30.976164250316536 -8.65092816549981 6.1243936647084
head 11.594156437167191 -3.9463117377988652 2.0427683306339492
rclavicle -1.4604239048820261E-15 1.5325437914589089E-15
rhumerus -8.713202989306577 2.3049587657645647 -79.72173930019805
rradius 49.33814503313713
rwrist -20.75412227989026
rhand -42.06206583921914 16.111007778698923
rfingers 7.125019999999945
rthumb -14.901682371389814 -13.300708952155091
lclavicle -5.800645403390108E-15 1.2463209493622225E-15
lhumerus -31.12591730452692 12.153798048897727 76.77621814017922
lradius 24.755998355869266
lwrist -4.863949407588984
lhand -24.651767150604012 21.73841559517169
lfingers 7.125019999999957
lthumb 1.852119122997425 51.682501071249554
rfemur -2.604495584093797 8.096716621691623 34.09139661755645
rtibia 31.557908612496796
rfoot -17.830200704387607 -9.236922558082123
rtoes 4.070003862390284
lfemur -30.11776785300043 1.088897263268601 -14.549501906257031
ltibia 40.1903611532409
lfoot -3.4088856750910494 -5.903085836808975
ltoes -3.5485896725885504
145
root 0 0 0 -2.1316956734634296 -3.7795546813290293 0.49447157695281047
lowerback 7.614783370048598 1.5837916947832078 -2.5327061711383405
upperback 1.8656851796843106 1.962783030692691 -0.05377070819161822
thorax -2.371870683970493 1.0317367469045204 1.2524714248762736
lowerneck -9.343652798719916 -5.525423863842191 -6.407850876452355
upperneck 31.030613300148683 -8.641914224554181 6.0901545866693905
head 11.611151679005266 -3.9415702635317618 2.030045234828072
rclavicle -1.362425091460578E-15 1.4618723246397686E-15
rhumerus -8.364893489185032 1.8945014904432282 -79.63092252766701
rradius 48.90099818368143
rwrist -20.643268193640644
rhand -42.06765251158566 16.223009548223214
rfingers 7.125019999999943
rthumb -14.904107262940435 -13.186178046231635
lclavicle -5.737771851066307E-15 1.1135526498495355E-15
lhumerus -31.00805241296165 12.058620315071122 76.97619561773122
lradius 24.811161364464883
lwrist -4.786179554372929
lhand -24.586440932915178 21.756617197149694
lfingers 7.125019999999956
lthumb 1.914792830693426 51.70001653899834
rfemur -6.033892676397223 7.934227468306462 33.669303931099265
rtibia 33.747894578122846
rfoot -16.346449331413673 -9.469186329915438
rtoes 4.682697816448054
lfemur -28.890515266471674 1.3641491521857514 -15.08587181315454
ltibia 41.99244268745103
lfoot -3.0880709346584805 -6.752210619960826
ltoes -3.4022188243885383
146
root 0 0 0 -2.167928702741466 -3.8429442880156284 0.48703648811903694
lowerback 7.599357367567061 1.5619478321193379 -2.5281545663617204
upperback 1.8304854856446737 1.9351807995967458 -0.04130767074409292
thorax -2.400710711658337 1.0170762248724547 1.2677146439965084
lowerneck -9.396249484162007 -5.508247995356112 -6.361785028840494
upperneck 31.14744613871645 -8.62742888937864 6.013774866198968
head 11.645184758623756 -3.9339049994625483 2.0002202245481926
rclavicle -1.3481630551238072E-15 1.3521860370686508E-15
rhumerus -7.840523730481635 1.322433311236511 -79.47028077773882
rradius 48.35324857974101
rwrist -20.51819948243501
rhand -42.041354535462496 16.331694940112527
rfingers 7.125019999999941
rthumb -14.875469615296112 -13.07531167108218
lclavicle -5.732857404032069E-15 8.850377166604273E-16
lhumerus -30.796498939305998 11.884655859956311 77.3366847710364
lradius 24.918496929612918
lwrist -4.63357189221062
lhand -24.479079688220722 21.789240000463224
lfingers 7.125019999999954
lthumb 2.017609815378105 51.73131697312518
rfemur -12.049451339302736 7.637939594528457 32.98123207524791
rtibia 37.40306332966155
rfoot -13.75956965639412 -9.728918026155464
rtoes 5.739672772546642
lfemur -26.52843157278385 1.9888584735436208 -15.90011501038895
ltibia 46.2866813445693
lfoot -2.653684596242119 -8.150617281237595
ltoes -3.6394628140391436
147
root 0 0 0 -2.2034478783129545 -3.894726006937218 0.4806193697495716
lowerback 7.573142142730902 1.5457705161374609 -2.5224086965063304
upperback 1.800618941365963 1.9151422467986012 -0.03335102460674488
thorax -2.4169613598594717 1.006365593498104 1.276151782141655
lowerneck -9.43176864651603 -5.494193447557439 -6.327541837969802
upperneck 31.237764112967785 -8.616901292996815 5.947962741030702
head 11.671506706444267 -3.9280894813668596 1.9739990708677184
rclavicle -1.4260602452258167E-15 1.2957647393268793E-15
rhumerus -7.517881435585281 1.01419141941521 -79.35740666176108
rradius 48.134413131611545
rwrist -20.459889792908662
rhand -42.01514666446387 16.355636085209177
rfingers 7.125019999999939
rthumb -14.848949406643822 -13.050385663495593
lclavicle -5.762093969442585E-15 7.223577207423938E-16
lhumerus -30.63216855172498 11.72790591031009 77.62486035938781
lradius 24.986545362589528
lwrist -4.5376054154048004
lhand -24.35613837423507 21.829870276692954
lfingers 7.125019999999953
lthumb 2.1353708649339027 51.77060333529198
rfemur -15.114852843702979 7.449745020485114 32.732953023678355
rtibia 39.23075514726717
rfoot -12.459529931737269 -9.703906983244387
rtoes 6.435715715886802
lfemur -25.057476118351598 2.4454741341709028 -16.231180788384645
ltibia 49.74614765345869
lfoot -2.3907702313174326 -8.81890408016447
ltoes -4.071471925404671
148
root 0 0 0 -2.2446659831521187 -3.942851958319547 0.47327621626307
lowerback 7.533012906254516 1.531931512273361 -2.5131496417354664
upperback 1.7684860455972005 1.8987170286940074 -0.02728554356666013
thorax -2.4270158076763 0.9974105051109398 1.280038693198231
lowerneck -9.464757877896867 -5.478946713168971 -6.2948400614538125
upperneck 31.323545138059007 -8.605524186526297 5.877000912844449
head 11.697013448900094 -3.921649568840082 1.945519531635719
rclavicle -1.6355165332329753E-15 1.2764213662842E-15
rhumerus -7.346036353339635 0.8791549985173424 -79.28660216343506
rradius 48.10596448062987
rwrist -20.47242725541886
rhand -41.984976699702955 16.304036105430495
rfingers 7.125019999999938
rthumb -14.820866866717349 -13.101929345441068
lclavicle -5.851283519877478E-15 6.059861852167866E-16
lhumerus -30.487056539315773 11.576053707192308 77.88469188293129
lradius 25.036397926394425
lwrist -4.4678743928497395
lhand -24.222166116794302 21.875453681154426
lfingers 7.125019999999952
lthumb 2.263794078309424 51.81462905933916
rfemur -16.777594730601226 7.3284654416654345 32.68645072271195
rtibia 39.976963055950286
rfoot -11.850722562420309 -9.55660162344313
rtoes 7.063660437597884
lfemur -24.123829176093807 2.8563645721514863 -16.190817007802508
ltibia 53.15499237246794
lfoot -2.248264131326298 -8.976682353976054
ltoes -4.682284140045125
149
root 0 0 0 -2.2829888144935313 -3.9734905202350395 0.4665287520125309
lowerback 7.482806488971804 1.5246656628928805 -2.5002653800357804
upperback 1.7420914237317864 1.891479361334976 -0.024432128268748077
thorax -2.4246757076288157 0.9931732171295184 1.277429459969408
lowerneck -9.484939097202643 -5.46447116114386 -6.270047104632033
upperneck 31.38844884472225 -8.594442595806491 5.814007213983521
head 11.716919775346486 -3.915415492360414 1.9200687564069105
rclavicle -1.9083280449126024E-15 1.2793437205719568E-15
rhumerus -7.390737549162139 0.9831833084930883 -79.278431792064
rradius 48.31177080656816
rwrist -20.56450724659606
rhand -41.95168180186431 16.177157964099198
rfingers 7.125019999999938
rthumb -14.791858528496533 -13.230357922551322
lclavicle -5.952933261755484E-15 5.314839385295084E-16
lhumerus -30.382694915617556 11.446622801868164 78.08063971644309
lradius 25.059623392868172
lwrist -4.43569040142343
lhand -24.092060338302797 21.921751278099652
lfingers 7.125019999999951
lthumb 2.3886832854573137 51.85937846663067
rfemur -17.092916286106913 7.3169514458874705 32.732671248771474
rtibia 39.58153109803806
rfoot -11.933366713424732 -9.42569961596823
rtoes 7.489041121088201
lfemur -23.875182947148723 3.2214090835148887 -15.75304696772234
ltibia 56.21417413494376
lfoot -2.370926239995148 -8.570789399403827
ltoes -5.41370893683084
150
root 0 0 0 -2.3100397777768706 -3.982527776154124 0.46220566757290277
lowerback 7.432964821707053 1.5249604814029896 -2.4865088195479763
upperback 1.7283821039169194 1.8942534890206453 -0.02502861560009839
thorax -2.4089015460327383 0.9942549326814459 1.2695905266389147
lowerneck -9.483437577539934 -5.453420361436091 -6.257691682745759
upperneck 31.420596594357857 -8.586036812648825 5.771940433109685
head 11.726906849502289 -3.91086256732818 1.9027959961087482
rclavicle -2.182668469475529E-15 1.2860718679846636E-15
rhumerus -7.648065057486853 1.3208992293394015 -79.32926961558117
rradius 48.737290708886135
rwrist -20.722483371270663
rhand -41.912481523137544 15.992841054427831
rfingers 7.125019999999939
rthumb -14.758612779897724 -13.41823339112052
lclavicle -6.051259291417505E-15 4.928893981448831E-16
lhumerus -30.328801868633082 11.350025839940972 78.19582322345272
lradius 25.059530790645884
lwrist -4.435450968914123
lhand -23.98475881001919 21.96413527633061
lfingers 7.12501999999995
lthumb 2.49185283147505 51.90042086475738
rfemur -16.121298400616954 7.419467410620241 32.81380339587905
rtibia 38.2038411120142
rfoot -12.670378080452434 -9.385239927528781
rtoes 7.613312605879827
lfemur -24.217929301446834 3.5519307463217693 -15.053236693704948
ltibia 58.738760489066124
lfoot -2.8345714449720294 -7.72581350111969
ltoes -6.203533205398584
